<svg xmlns="http://www.w3.org/2000/svg" viewBox="0 0 48 48"><defs><style>.cls-1{fill:#dad7e5}.cls-2{fill:#edebf2}.cls-3{fill:#db5669}.cls-4{fill:#fc6}.cls-5{fill:#f26674}.cls-6{fill:#ffde76}.cls-7{fill:#9fdbf3}.cls-8{fill:#b2e5fb}</style></defs><g id="shop"><path class="cls-1" d="M5 12.82h38V43H5z"/><path class="cls-2" d="M43 12.82V41H9a2 2 0 0 1-2-2V12.82z"/><path class="cls-3" d="M6 17a3 3 0 0 1-3-3v-1h6v1a3 3 0 0 1-3 3z"/><path class="cls-4" d="M12 17a3 3 0 0 1-3-3v-1h6v1a3 3 0 0 1-3 3z"/><path class="cls-3" d="M18 17a3 3 0 0 1-3-3v-1h6v1a3 3 0 0 1-3 3z"/><path class="cls-4" d="M24 17a3 3 0 0 1-3-3v-1h6v1a3 3 0 0 1-3 3z"/><path class="cls-3" d="M30 17a3 3 0 0 1-3-3v-1h6v1a3 3 0 0 1-3 3z"/><path class="cls-4" d="M36 17a3 3 0 0 1-3-3v-1h6v1a3 3 0 0 1-3 3z"/><path class="cls-3" d="M42 17a3 3 0 0 1-3-3v-1h6v1a3 3 0 0 1-3 3zM10 5l-1 8H3l2-8h5z"/><path class="cls-5" d="m10 5-.75 6h-3a1 1 0 0 1-1-1.24L6.5 5z"/><path class="cls-4" d="m16 5-1 8H9l1-8h6z"/><path class="cls-6" d="m16 5-.75 6h-3.12a1 1 0 0 1-1-1.12L11.75 5z"/><path class="cls-3" d="M21 5v8h-6l1-8h5z"/><path class="cls-5" d="M21 5v6h-2.87a1 1 0 0 1-1-1.12L17.75 5z"/><path class="cls-4" d="M21 5h6v8h-6z"/><path class="cls-6" d="M27 5v6h-4a1 1 0 0 1-1-1V5z"/><path class="cls-3" d="M33 13h-6V5h5l1 8z"/><path class="cls-5" d="M32.75 11H29a1 1 0 0 1-1-1V5h4z"/><path class="cls-4" d="M39 13h-6l-1-8h6l1 8z"/><path class="cls-6" d="M38.75 11h-3.87a1 1 0 0 1-1-.88L33.25 5H38z"/><path class="cls-3" d="M45 13h-6l-1-8h5l2 8z"/><path class="cls-5" d="M44.5 11h-3.62a1 1 0 0 1-1-.88L39.25 5H43z"/><path class="cls-1" d="M5 1h38v4H5z"/><path class="cls-2" d="M43 1v2H9a2 2 0 0 1-2-2z"/><path class="cls-1" d="M3 43h42v4H3z"/><path class="cls-2" d="M45 43v2H7a2 2 0 0 1-2-2z"/><path class="cls-7" d="M9 25h10v18H9z"/><path class="cls-8" d="M19 25v16h-6a2 2 0 0 1-2-2V25z"/><path class="cls-7" d="M24 25h14v10H24z"/><path class="cls-8" d="M38 25v8H28a2 2 0 0 1-2-2v-6z"/><path d="M12 34a1 1 0 0 1-1-1 1 1 0 1 1 1 1z" style="fill:#425b72"/><path d="M39 36H23a1 1 0 0 1 0-2h16a1 1 0 0 1 0 2z" style="fill:#919191"/><path class="cls-5" d="M9 13a7.5 7.5 0 0 1 0 1.24A3 3 0 0 1 4.18 13z"/><path class="cls-6" d="M15 13a7.5 7.5 0 0 1 0 1.24A3 3 0 0 1 10.18 13z"/><path class="cls-5" d="M21 13a7.5 7.5 0 0 1 0 1.24A3 3 0 0 1 16.18 13z"/><path class="cls-6" d="M27 13a7.5 7.5 0 0 1 0 1.24A3 3 0 0 1 22.18 13z"/><path class="cls-5" d="M33 13a7.5 7.5 0 0 1 0 1.24A3 3 0 0 1 28.18 13z"/><path class="cls-6" d="M39 13a7.5 7.5 0 0 1 0 1.24A3 3 0 0 1 34.18 13z"/><path class="cls-5" d="M45 13a7.5 7.5 0 0 1 0 1.24A3 3 0 0 1 40.18 13z"/></g></svg>